<?xml version="1.0" standalone="no"?>
<!DOCTYPE svg PUBLIC "-//W3C//DTD SVG 20010904//EN"
 "http://www.w3.org/TR/2001/REC-SVG-20010904/DTD/svg10.dtd">
<svg version="1.0" xmlns="http://www.w3.org/2000/svg"
 width="700.000000pt" height="700.000000pt" viewBox="0 0 700.000000 700.000000"
 preserveAspectRatio="xMidYMid meet">
<metadata>
Created by potrace 1.14, written by Peter Selinger 2001-2017
</metadata>
<g transform="translate(0.000000,700.000000) scale(0.100000,-0.100000)"
fill="#000000" stroke="none">
<path d="M1447 6994 c-1 -1 -108 -4 -237 -7 -287 -6 -355 -19 -540 -105 -229
-107 -432 -309 -548 -546 -54 -110 -87 -199 -96 -261 -3 -22 -9 -197 -12 -390
-9 -489 -11 -4477 -2 -4605 20 -297 164 -588 387 -782 85 -75 150 -118 267
-179 138 -71 183 -82 389 -96 114 -8 4819 -11 4935 -4 61 4 126 16 160 28 8 3
20 7 25 8 24 6 120 47 185 79 269 133 471 370 580 681 36 105 39 131 45 420 5
282 5 4420 0 4625 -5 190 -10 225 -41 320 -138 413 -497 731 -899 796 -22 3
-51 8 -65 11 -24 4 -4528 12 -4533 7z m43 -458 c198 -52 222 -58 235 -62 6 -1
138 -37 295 -79 157 -42 292 -78 300 -80 8 -2 125 -33 260 -70 295 -80 283
-77 842 -226 247 -65 584 -157 750 -204 167 -47 339 -95 383 -106 44 -12 91
-25 105 -30 14 -4 77 -22 140 -38 63 -16 183 -48 265 -70 171 -47 373 -101
395 -107 102 -26 308 -86 392 -114 197 -65 219 -106 170 -320 -43 -186 -152
-576 -178 -640 -32 -75 -97 -116 -171 -106 -52 6 -416 97 -683 171 -52 14
-129 35 -170 46 -150 40 -528 142 -650 176 -69 18 -134 36 -145 38 -56 13 -75
17 -80 16 -2 0 -18 4 -35 9 -16 5 -30 7 -30 4 0 -2 -13 -52 -29 -111 -16 -60
-43 -160 -60 -223 -16 -63 -51 -194 -76 -290 -26 -96 -48 -182 -50 -190 -2 -8
-14 -55 -28 -105 -14 -49 -46 -169 -72 -265 -26 -96 -62 -231 -81 -300 -19
-69 -36 -135 -39 -145 -4 -18 -18 -71 -85 -320 -12 -44 -39 -147 -61 -230 -22
-82 -44 -164 -50 -181 -5 -17 -11 -40 -13 -50 -2 -10 -18 -73 -36 -139 -59
-223 -61 -204 30 -233 73 -23 339 -98 530 -148 147 -39 380 -103 435 -119 28
-8 120 -33 205 -55 407 -108 524 -145 568 -177 78 -58 80 -115 11 -388 -17
-66 -32 -127 -34 -135 -9 -38 -84 -290 -111 -370 -3 -8 -5 -16 -4 -18 0 -1 -7
-16 -17 -33 -10 -17 -39 -40 -68 -54 -49 -24 -52 -24 -125 -10 -96 18 -90 16
-255 60 -77 20 -147 38 -155 40 -25 6 -430 115 -500 134 -36 10 -103 29 -150
41 -47 12 -130 35 -185 50 -173 48 -434 118 -595 159 -662 170 -823 218 -873
260 -58 48 -69 114 -41 231 9 36 17 73 19 84 3 10 12 44 21 75 9 31 17 63 19
71 2 9 41 157 88 330 77 283 207 764 242 895 61 231 239 898 247 930 6 22 12
45 14 50 1 6 39 150 84 320 45 171 113 431 150 580 l69 270 -32 12 c-32 12
-369 106 -642 177 -77 21 -162 44 -190 52 -27 7 -167 46 -310 85 -441 120
-611 172 -637 196 -28 25 -58 91 -58 130 0 57 151 620 206 766 24 62 31 70 78
97 28 17 60 30 71 30 11 0 94 -20 185 -44z"/>
</g>
</svg>
