<svg xmlns="http://www.w3.org/2000/svg" width="453" height="453" viewBox="0 0 453 453" version="1.1"><path d="M 77.591 48.250 C 74.707 51.171, 73.755 53.891, 68.191 75.091 C 64.786 88.066, 62 100.493, 62 102.706 C 62 107.354, 64.549 111.190, 68.716 112.815 C 70.247 113.412, 96.475 120.531, 127 128.634 C 157.525 136.738, 182.668 143.491, 182.874 143.642 C 183.191 143.873, 149.714 269.448, 125.878 357.443 C 120.974 375.544, 119.027 384.333, 119.437 386.518 C 120.650 392.979, 123.906 394.653, 147.633 401.004 C 159.660 404.224, 198.300 414.587, 233.500 424.033 C 268.700 433.479, 299.110 441.222, 301.077 441.240 C 305.570 441.281, 309.405 438.818, 311.271 434.691 C 312.065 432.936, 315.539 420.669, 318.990 407.430 C 325.251 383.411, 325.261 383.352, 323.546 379.739 C 322.601 377.747, 320.854 375.480, 319.664 374.701 C 318.474 373.922, 291.850 366.410, 260.500 358.008 C 229.150 349.606, 203.369 342.624, 203.210 342.492 C 202.897 342.234, 250.856 162.810, 251.378 162.289 C 251.551 162.116, 277.922 168.994, 309.981 177.572 C 365.399 192.401, 368.442 193.103, 371.777 191.834 C 373.707 191.099, 376.113 189.374, 377.125 187.999 C 378.137 186.625, 381.945 174.284, 385.588 160.576 C 391.583 138.022, 392.105 135.293, 391.081 131.876 C 390.458 129.795, 388.727 127.244, 387.225 126.193 C 384.504 124.288, 355.122 116.279, 150.291 61.605 C 116.075 52.472, 86.443 45, 84.441 45 C 81.658 45, 80.044 45.766, 77.591 48.250" stroke="none" fill="#fbfbfb" fill-rule="evenodd"/><path d="M 57 2.038 C 29.845 9.082, 8.850 30.217, 1.994 57.410 C 0.043 65.150, 0 68.788, 0 226.500 C 0 384.212, 0.043 387.850, 1.994 395.590 C 8.900 422.983, 30.017 444.100, 57.410 451.006 C 65.150 452.957, 68.788 453, 226.500 453 C 384.212 453, 387.850 452.957, 395.590 451.006 C 422.326 444.266, 443.942 423.161, 450.412 397.481 C 451.379 393.641, 452.582 389.719, 453.085 388.764 C 454.139 386.764, 454.378 62.289, 453.325 63.342 C 452.954 63.713, 451.823 60.750, 450.812 56.758 C 444.421 31.525, 425.988 11.912, 400.500 3.226 L 392.500 0.500 228.500 0.296 C 68.915 0.098, 64.298 0.145, 57 2.038 M 77.591 48.250 C 74.707 51.171, 73.755 53.891, 68.191 75.091 C 64.786 88.066, 62 100.493, 62 102.706 C 62 107.354, 64.549 111.190, 68.716 112.815 C 70.247 113.412, 96.475 120.531, 127 128.634 C 157.525 136.738, 182.668 143.491, 182.874 143.642 C 183.191 143.873, 149.714 269.448, 125.878 357.443 C 120.974 375.544, 119.027 384.333, 119.437 386.518 C 120.650 392.979, 123.906 394.653, 147.633 401.004 C 159.660 404.224, 198.300 414.587, 233.500 424.033 C 268.700 433.479, 299.110 441.222, 301.077 441.240 C 305.570 441.281, 309.405 438.818, 311.271 434.691 C 312.065 432.936, 315.539 420.669, 318.990 407.430 C 325.251 383.411, 325.261 383.352, 323.546 379.739 C 322.601 377.747, 320.854 375.480, 319.664 374.701 C 318.474 373.922, 291.850 366.410, 260.500 358.008 C 229.150 349.606, 203.369 342.624, 203.210 342.492 C 202.897 342.234, 250.856 162.810, 251.378 162.289 C 251.551 162.116, 277.922 168.994, 309.981 177.572 C 365.399 192.401, 368.442 193.103, 371.777 191.834 C 373.707 191.099, 376.113 189.374, 377.125 187.999 C 378.137 186.625, 381.945 174.284, 385.588 160.576 C 391.583 138.022, 392.105 135.293, 391.081 131.876 C 390.458 129.795, 388.727 127.244, 387.225 126.193 C 384.504 124.288, 355.122 116.279, 150.291 61.605 C 116.075 52.472, 86.443 45, 84.441 45 C 81.658 45, 80.044 45.766, 77.591 48.250 M 0.488 226.500 C 0.488 316.150, 0.606 352.677, 0.750 307.671 C 0.894 262.665, 0.894 189.315, 0.750 144.671 C 0.606 100.027, 0.488 136.850, 0.488 226.500" stroke="none" fill="#ac1c2c" fill-rule="evenodd"/></svg>