<svg version="1.0" xmlns="http://www.w3.org/2000/svg" width="512.000000pt" height="512.000000pt" viewBox="0 0 453.000000 453.000000" preserveAspectRatio="xMidYMid meet"><g transform="translate(0.000000,453.000000) scale(0.100000,-0.100000)" fill="#ae1c28" stroke="none"><path d="M616 4514 c-280 -51 -504 -258 -593 -550 -16 -55 -18 -159 -20 -1661 -3 -1555 -3 -1606 16 -1698 47 -230 197 -424 406 -525 166 -81 21 -75 1840 -75 1293 0 1630 3 1670 13 300 78 499 277 577 577 10 40 13 378 13 1675 0 1544 -1 1628 -18 1689 -86 302 -326 518 -624 561 -42 6 -660 9 -1628 9 -1302 -1 -1573 -3 -1639 -15z m865 -422 c343 -93 723 -194 844 -226 121 -31 254 -68 295 -81 41 -13 221 -63 400 -111 912 -244 867 -229 890 -300 10 -29 3 -63 -50 -266 -34 -128 -70 -251 -81 -274 -21 -44 -52 -64 -100 -64 -17 0 -181 41 -365 90 -184 50 -358 97 -387 104 -28 8 -128 35 -220 60 -156 43 -197 51 -197 42 0 -4 -228 -858 -361 -1351 -56 -209 -104 -392 -107 -407 -5 -31 -73 -9 588 -188 574 -155 571 -154 599 -184 41 -43 37 -83 -33 -341 -36 -132 -74 -251 -84 -265 -11 -14 -35 -31 -55 -38 -34 -13 -61 -7 -634 148 -329 90 -634 171 -678 182 -44 10 -172 44 -285 74 -220 60 -242 71 -261 134 -10 32 -2 69 75 350 286 1054 555 2074 549 2080 -4 4 -89 28 -188 55 -593 157 -953 258 -975 274 -14 10 -31 35 -39 57 -13 37 -10 50 53 284 37 134 75 258 84 275 15 25 60 51 93 54 3 1 286 -75 630 -167z"/></g></svg>